<svg xmlns="http://www.w3.org/2000/svg" width="400" height="400" viewBox="0 0 400 400"><rect width="400" height="400" fill="#143e5c"/><g opacity="0.65"><path d="M263 57q12 -4 24 0t12 0" fill="none" stroke="#24516b" stroke-width="1.4" stroke-linecap="round"/><path d="M161 200q12 -4 24 0t12 0" fill="none" stroke="#24516b" stroke-width="1.4" stroke-linecap="round"/><path d="M333 331q12 -4 24 0t12 0" fill="none" stroke="#24516b" stroke-width="1.4" stroke-linecap="round"/><path d="M98 144q12 -4 24 0t12 0" fill="none" stroke="#24516b" stroke-width="1.4" stroke-linecap="round"/><path d="M240 132q12 -4 24 0t12 0" fill="none" stroke="#24516b" stroke-width="1.4" stroke-linecap="round"/><path d="M59 89q12 -4 24 0t12 0" fill="none" stroke="#24516b" stroke-width="1.4" stroke-linecap="round"/><path d="M148 215q12 -4 24 0t12 0" fill="none" stroke="#24516b" stroke-width="1.4" stroke-linecap="round"/><path d="M135 261q12 -4 24 0t12 0" fill="none" stroke="#24516b" stroke-width="1.4" stroke-linecap="round"/><path d="M125 123q12 -4 24 0t12 0" fill="none" stroke="#24516b" stroke-width="1.4" stroke-linecap="round"/><path d="M125 248q12 -4 24 0t12 0" fill="none" stroke="#24516b" stroke-width="1.4" stroke-linecap="round"/><path d="M263 306q12 -4 24 0t12 0" fill="none" stroke="#24516b" stroke-width="1.4" stroke-linecap="round"/><path d="M75 278q12 -4 24 0t12 0" fill="none" stroke="#24516b" stroke-width="1.4" stroke-linecap="round"/><path d="M171 105q12 -4 24 0t12 0" fill="none" stroke="#24516b" stroke-width="1.4" stroke-linecap="round"/><path d="M33 97q12 -4 24 0t12 0" fill="none" stroke="#24516b" stroke-width="1.4" stroke-linecap="round"/><path d="M254 62q12 -4 24 0t12 0" fill="none" stroke="#24516b" stroke-width="1.4" stroke-linecap="round"/><path d="M187 154q12 -4 24 0t12 0" fill="none" stroke="#24516b" stroke-width="1.4" stroke-linecap="round"/><path d="M128 326q12 -4 24 0t12 0" fill="none" stroke="#24516b" stroke-width="1.4" stroke-linecap="round"/><path d="M325 146q12 -4 24 0t12 0" fill="none" stroke="#24516b" stroke-width="1.4" stroke-linecap="round"/><path d="M125 122q12 -4 24 0t12 0" fill="none" stroke="#24516b" stroke-width="1.4" stroke-linecap="round"/><path d="M156 137q12 -4 24 0t12 0" fill="none" stroke="#24516b" stroke-width="1.4" stroke-linecap="round"/><path d="M88 271q12 -4 24 0t12 0" fill="none" stroke="#24516b" stroke-width="1.4" stroke-linecap="round"/><path d="M223 266q12 -4 24 0t12 0" fill="none" stroke="#24516b" stroke-width="1.4" stroke-linecap="round"/><path d="M168 58q12 -4 24 0t12 0" fill="none" stroke="#24516b" stroke-width="1.4" stroke-linecap="round"/></g></svg>