<svg xmlns="http://www.w3.org/2000/svg" width="400" height="400" viewBox="0 0 400 400"><rect width="400" height="400" fill="#4d6076"/><g opacity="0.65"><circle cx="39" cy="316" r="1" fill="#61758a"/><circle cx="226" cy="235" r="1" fill="#61758a"/><circle cx="60" cy="43" r="2" fill="#61758a"/><circle cx="151" cy="263" r="2" fill="#61758a"/><circle cx="143" cy="280" r="1.5" fill="#61758a"/><circle cx="190" cy="200" r="1.5" fill="#61758a"/><circle cx="151" cy="246" r="1.5" fill="#61758a"/><circle cx="54" cy="62" r="1" fill="#61758a"/><circle cx="330" cy="207" r="2" fill="#61758a"/><circle cx="233" cy="168" r="1.5" fill="#61758a"/><circle cx="340" cy="53" r="1.5" fill="#61758a"/><circle cx="270" cy="184" r="1.5" fill="#61758a"/><circle cx="224" cy="63" r="1" fill="#61758a"/><circle cx="273" cy="131" r="2" fill="#61758a"/><circle cx="157" cy="174" r="1.5" fill="#61758a"/><circle cx="99" cy="198" r="2" fill="#61758a"/><circle cx="328" cy="150" r="1.5" fill="#61758a"/><circle cx="225" cy="211" r="2" fill="#61758a"/><circle cx="200" cy="316" r="1.5" fill="#61758a"/><circle cx="211" cy="67" r="1.5" fill="#61758a"/><circle cx="110" cy="256" r="1.5" fill="#61758a"/><circle cx="232" cy="194" r="2" fill="#61758a"/><circle cx="311" cy="237" r="1" fill="#61758a"/></g></svg>