<svg xmlns="http://www.w3.org/2000/svg" width="400" height="400" viewBox="0 0 400 400"><rect width="400" height="400" fill="#143e5c"/><path d="M250.9 321.0 L248.6 332.4 L231.7 337.4 L213.6 338.6 L197.0 332.6 L192.4 321.0 L200.0 310.8 L212.7 301.5 L231.3 305.4 L249.7 309.1Z" fill="#396982" opacity=".18"/><path d="M189.8 224.0 L182.2 239.2 L169.3 247.3 L154.3 248.6 L138.8 241.4 L132.7 224.0 L140.9 208.1 L154.0 198.5 L171.1 194.9 L181.0 209.7Z" fill="#396982" opacity=".18"/><path d="M382.8 268.0 L376.4 286.8 L356.1 299.1 L332.2 293.8 L314.5 284.1 L306.2 268.0 L312.2 250.7 L332.1 242.1 L354.7 240.1 L374.4 250.3Z" fill="#396982" opacity=".18"/><path d="M129.3 352.0 L128.3 368.6 L111.4 375.3 L95.0 374.2 L79.1 367.8 L72.8 352.0 L77.2 335.0 L94.1 327.1 L112.5 325.4 L130.0 334.2Z" fill="#396982" opacity=".18"/><path d="M333.3 245.0 L327.6 263.4 L302.6 273.7 L276.7 267.3 L255.5 260.1 L241.1 245.0 L254.8 229.6 L275.5 220.5 L300.9 219.6 L323.2 228.7Z" fill="#396982" opacity=".18"/><path d="M387.0 79.0 L381.4 94.2 L354.8 97.5 L333.6 96.8 L314.0 91.2 L301.7 79.0 L315.6 67.5 L331.7 57.8 L357.8 55.3 L381.5 63.8Z" fill="#396982" opacity=".18"/><path d="M239.4 340.0 L238.1 356.8 L220.7 370.2 L195.6 369.4 L178.5 356.5 L173.0 340.0 L174.0 321.0 L195.2 309.7 L218.2 315.8 L234.0 325.5Z" fill="#396982" opacity=".18"/><path d="M174.8 65.0 L165.0 76.6 L152.2 85.5 L132.3 88.8 L120.8 76.7 L110.9 65.0 L121.2 53.5 L132.1 40.5 L153.0 42.6 L169.1 51.2Z" fill="#396982" opacity=".18"/><path d="M255.6 319.0 L254.5 333.6 L244.4 340.5 L233.3 341.9 L223.8 333.3 L220.2 319.0 L225.5 306.3 L233.5 297.0 L245.4 293.2 L253.1 305.7Z" fill="#396982" opacity=".18"/><path d="M244.6 173.0 L238.8 188.1 L214.6 193.7 L188.9 198.2 L166.7 188.3 L165.6 173.0 L173.5 160.5 L191.7 152.8 L216.0 149.7 L239.7 157.5Z" fill="#396982" opacity=".18"/><path d="M298.5 208.0 L280.0 217.9 L260.7 223.8 L234.8 227.2 L214.7 218.9 L197.2 208.0 L217.8 198.1 L233.4 187.0 L262.3 190.0 L284.0 196.9Z" fill="#396982" opacity=".18"/><path d="M343 164q9 -5 18 -1t15 -2" fill="none" stroke="#396982" stroke-width="2" opacity=".5" stroke-linecap="round"/><path d="M236 152q9 -5 18 -1t15 -2" fill="none" stroke="#396982" stroke-width="2" opacity=".5" stroke-linecap="round"/><path d="M285 372q9 -5 18 -1t15 -2" fill="none" stroke="#396982" stroke-width="2" opacity=".5" stroke-linecap="round"/><path d="M272 295q9 -5 18 -1t15 -2" fill="none" stroke="#396982" stroke-width="2" opacity=".5" stroke-linecap="round"/><path d="M346 139q9 -5 18 -1t15 -2" fill="none" stroke="#396982" stroke-width="2" opacity=".5" stroke-linecap="round"/><path d="M30 45q9 -5 18 -1t15 -2" fill="none" stroke="#396982" stroke-width="2" opacity=".5" stroke-linecap="round"/><path d="M207 345q9 -5 18 -1t15 -2" fill="none" stroke="#396982" stroke-width="2" opacity=".5" stroke-linecap="round"/><path d="M254 332q9 -5 18 -1t15 -2" fill="none" stroke="#396982" stroke-width="2" opacity=".5" stroke-linecap="round"/><path d="M27 176q9 -5 18 -1t15 -2" fill="none" stroke="#396982" stroke-width="2" opacity=".5" stroke-linecap="round"/><path d="M353 149q9 -5 18 -1t15 -2" fill="none" stroke="#396982" stroke-width="2" opacity=".5" stroke-linecap="round"/><path d="M218 206q9 -5 18 -1t15 -2" fill="none" stroke="#396982" stroke-width="2" opacity=".5" stroke-linecap="round"/><path d="M357 299q9 -5 18 -1t15 -2" fill="none" stroke="#396982" stroke-width="2" opacity=".5" stroke-linecap="round"/><path d="M312 178q9 -5 18 -1t15 -2" fill="none" stroke="#396982" stroke-width="2" opacity=".5" stroke-linecap="round"/><path d="M41 122q9 -5 18 -1t15 -2" fill="none" stroke="#396982" stroke-width="2" opacity=".5" stroke-linecap="round"/><path d="M150 353q9 -5 18 -1t15 -2" fill="none" stroke="#396982" stroke-width="2" opacity=".5" stroke-linecap="round"/><path d="M329 108q9 -5 18 -1t15 -2" fill="none" stroke="#396982" stroke-width="2" opacity=".5" stroke-linecap="round"/><path d="M256 120q9 -5 18 -1t15 -2" fill="none" stroke="#396982" stroke-width="2" opacity=".5" stroke-linecap="round"/><path d="M154 55q9 -5 18 -1t15 -2" fill="none" stroke="#396982" stroke-width="2" opacity=".5" stroke-linecap="round"/><path d="M117 349q9 -5 18 -1t15 -2" fill="none" stroke="#396982" stroke-width="2" opacity=".5" stroke-linecap="round"/><path d="M96 328q9 -5 18 -1t15 -2" fill="none" stroke="#396982" stroke-width="2" opacity=".5" stroke-linecap="round"/><path d="M59 61q9 -5 18 -1t15 -2" fill="none" stroke="#396982" stroke-width="2" opacity=".5" stroke-linecap="round"/><path d="M124 279q9 -5 18 -1t15 -2" fill="none" stroke="#396982" stroke-width="2" opacity=".5" stroke-linecap="round"/><path d="M241 55q9 -5 18 -1t15 -2" fill="none" stroke="#396982" stroke-width="2" opacity=".5" stroke-linecap="round"/><path d="M268 123q9 -5 18 -1t15 -2" fill="none" stroke="#396982" stroke-width="2" opacity=".5" stroke-linecap="round"/><path d="M56 35q9 -5 18 -1t15 -2" fill="none" stroke="#396982" stroke-width="2" opacity=".5" stroke-linecap="round"/><path d="M102 267q9 -5 18 -1t15 -2" fill="none" stroke="#396982" stroke-width="2" opacity=".5" stroke-linecap="round"/><path d="M231 210q9 -5 18 -1t15 -2" fill="none" stroke="#396982" stroke-width="2" opacity=".5" stroke-linecap="round"/><path d="M338 190q9 -5 18 -1t15 -2" fill="none" stroke="#396982" stroke-width="2" opacity=".5" stroke-linecap="round"/><path d="M216 346q9 -5 18 -1t15 -2" fill="none" stroke="#396982" stroke-width="2" opacity=".5" stroke-linecap="round"/><path d="M351 348q9 -5 18 -1t15 -2" fill="none" stroke="#396982" stroke-width="2" opacity=".5" stroke-linecap="round"/><path d="M66 68q9 -5 18 -1t15 -2" fill="none" stroke="#396982" stroke-width="2" opacity=".5" stroke-linecap="round"/><path d="M202 294q9 -5 18 -1t15 -2" fill="none" stroke="#396982" stroke-width="2" opacity=".5" stroke-linecap="round"/><path d="M60 78q9 -5 18 -1t15 -2" fill="none" stroke="#396982" stroke-width="2" opacity=".5" stroke-linecap="round"/><path d="M355 279q9 -5 18 -1t15 -2" fill="none" stroke="#396982" stroke-width="2" opacity=".5" stroke-linecap="round"/><path d="M139 253q9 -5 18 -1t15 -2" fill="none" stroke="#396982" stroke-width="2" opacity=".5" stroke-linecap="round"/><path d="M107 328q9 -5 18 -1t15 -2" fill="none" stroke="#396982" stroke-width="2" opacity=".5" stroke-linecap="round"/></svg>